<svg xmlns="http://www.w3.org/2000/svg"  viewBox="0 0 512 512" width="48px" height="48px"><path d="M487.8,179.4c-14.2-46.9-40.9-88.3-82-115.7c-46.4-31-105.3-38.4-159.8-34.4c-51.7,3.8-104.6,17.9-148.6,46c-21.6,13.8-40.9,31.9-55,53.4C27.6,151.3,20,177.4,15.9,204c-2.3,15.1-3.4,30.3-4.4,45.6c-0.1,0.9,0.1,1.8,0.4,2.6c-0.9,0.9-1.5,2.2-1.5,3.8c0,30.1-0.6,60.4,4.6,90.2c4.8,27.1,15.2,52.9,31.6,75.1c29.2,39.5,73.5,63.3,120.4,75c88.9,22.2,194.2,3.7,264.5-57.1C505.5,375.2,514.7,268.4,487.8,179.4z M423.4,431.9c-70.8,60.4-176.9,76-264.9,50.8c-42.7-12.2-81.9-36.6-107.2-73.7c-31.1-45.6-30.1-101-30.1-153.9c0-0.3,0-0.5-0.1-0.8c0.5-0.7,0.9-1.6,1-2.7c1.7-27,4.1-54.1,12.1-80.1c7.9-25.9,23.1-48.3,42.7-66.8c37.3-35.2,89.8-53.2,139.6-61.1c55.5-8.8,115.5-6.4,166.4,19.3c44.6,22.5,75.1,63.1,91.3,109.6C504.3,259.6,497.5,368.6,423.4,431.9z"/><path fill="#1E4384" d="M474.2,172.5c-16.1-46.6-46.7-87.1-91.3-109.6c-50.9-25.7-111-28.1-166.4-19.3c-49.8,7.9-102.3,25.9-139.6,61.1c-19.6,18.5-34.7,40.9-42.7,66.8c-8,26-10.4,53.1-12.1,80.1c-0.1,1.1-0.4,2-1,2.7c0,0.2,0.1,0.5,0.1,0.8c0,52.9-1.1,108.3,30.1,153.9c25.3,37.1,64.5,61.5,107.2,73.7c88,25.2,194.2,9.6,264.9-50.8C497.5,368.6,504.3,259.6,474.2,172.5z M298.5,365c-4.2,5-10.6,5.4-16.6,3.9c-6.1-1.5-11.8-3.9-18-4.9c-6.8-1.1-13.6-2-20.3-3.4c-11.1-2.2-24.5-5.2-32.4-14c-1.1-0.2-2.1-0.9-2.8-2.2c-13.7-24.4-33.7-44.1-49.9-66.7c-15.3-21.4-30.5-43.1-44.6-65.2c-1-1.5-1-3-0.5-4.3c-6.5-8.5-8.1-21.4-6.3-31.6c2-11.5,10.6-19.2,20.7-24.3c22.2-11.2,55.1-15.6,74.6,3c0.8,0.8,1.3,1.7,1.5,2.6c18.1,19.8,28.8,44.5,44.6,65.9c8.2,11,17.8,20.8,25.7,32.1c7.6,10.9,14.3,22.3,19.5,34.5c0.6,1.3,0.6,2.4,0.2,3.4c3.3,6.1,3.1,13.4,3.3,20.3c0.3,9,2.9,17.6,4.4,26.4C302.8,348,303.8,358.7,298.5,365z"/><path fill="#D6E5E5" d="M206.5,176.8c0-0.1-0.1-0.1-0.1-0.2c-0.8-1.1-1.7-2.3-2.6-3.4c-0.1-0.2-0.3-0.3-0.4-0.5c-0.8-1-1.6-2-2.5-3c-0.2-0.2-0.4-0.5-0.6-0.7c-1-1.2-2.1-2.4-3.2-3.6c-0.1-0.2-0.3-0.3-0.4-0.5c-0.1-0.2-0.2-0.3-0.3-0.5c0,0,0,0,0,0c-1.2,0.6-2.7,0.8-4.2,0.2c-5-1.9-12.2,0.5-17,2c-6.9,2.2-13.6,4.9-20.1,8.1c-13.9,6.8-26.2,18.8-32.3,33.2c0.1,0.1,0.1,0.2,0.2,0.3c1.3,2,2.6,3.9,3.9,5.9c1.3,2,2.7,4,4,6c8.3-11.6,21.4-20.1,33.7-26.7c12-6.4,26.4-11.8,40.2-12.6c0.4-0.1,0.8-0.1,1.2-0.1h2.6c0.2,0,0.4,0,0.5,0C208.3,179.4,207.4,178.1,206.5,176.8z"/><path fill="#14B6B9" d="M231.5,300c-0.2-2.9-1.6-5.1-3.7-7.1c-4.5-4.3-9.2-7.8-12.7-13.1c-4.4-6.8-7.8-14.2-11.2-21.5c-7-14.7-16.6-26.3-27.6-38.1c-2.2-2.4-4.3-5.5-6.9-7.5c-1.9-1.5-4.3-2.5-6-4.1c-0.7-0.6-1.2-1.3-1.5-2c-9.4,5.7-19,12.6-24.4,21.8c-0.1,0.2-0.3,0.4-0.4,0.6c2.7,3.8,5.3,7.7,8,11.5c7.6,10.9,14.8,22.2,22.7,33c15.6,21.2,34.2,40.3,47.5,63.1c0.7,0.3,1.3,0.9,1.9,1.7c0.3,0.5,0.7,0.9,1,1.3c0.2,0.2,0.3,0.4,0.5,0.5c0.2,0.2,0.4,0.4,0.6,0.6c0.5,0.5,1,1,1.6,1.4c0,0,0,0,0,0c0-7.1,2.8-14.7,5.2-21.1c2-5.6,4.3-11.3,7.3-16.4C232.3,303.2,231.6,301.7,231.5,300z"/><path fill="#F26322" d="M163.8,152.6C163.8,152.6,163.8,152.6,163.8,152.6c-2,0.1-4,0.3-5.9,0.6c0,0-0.1,0-0.1,0c-0.9,0.1-1.9,0.3-2.8,0.4c0,0-0.1,0-0.1,0c-0.9,0.2-1.9,0.4-2.8,0.6c-0.1,0-0.1,0-0.2,0c-0.9,0.2-1.7,0.4-2.5,0.6c-0.1,0-0.2,0.1-0.4,0.1c-0.9,0.2-1.8,0.5-2.6,0.7c-0.1,0-0.2,0-0.2,0.1c-0.8,0.2-1.6,0.5-2.3,0.7c-0.2,0.1-0.4,0.1-0.5,0.2c-0.8,0.3-1.6,0.6-2.5,0.8c-0.1,0-0.1,0-0.2,0.1c-0.7,0.3-1.5,0.5-2.2,0.8c-0.2,0.1-0.4,0.2-0.6,0.2c-0.8,0.3-1.5,0.6-2.3,0.9c-7.2,3.1-16.5,8.3-18.3,16.7c-0.1,0.4-0.2,0.9-0.2,1.3c0,0.1,0,0.3-0.1,0.4c-0.1,0.3-0.1,0.7-0.2,1c0,0.2,0,0.3-0.1,0.5c-0.1,0.4-0.1,0.9-0.2,1.3c0,0.2,0,0.4-0.1,0.7c0,0.3,0,0.5-0.1,0.8c0,0.3,0,0.5-0.1,0.8c0,0.2,0,0.4,0,0.6c0,0.6,0,1.3,0,1.9v0.2c0,0.4,0,0.8,0,1.2c0,0.1,0,0.1,0,0.2c0.1,3,0.5,6,1.4,8.7l0,0c8-13.6,21-24.3,35.1-31c8-3.8,18.3-8.7,28.3-10.3C175.7,152.8,169.8,152.3,163.8,152.6z"/><path d="M116.4 187c.1 3 .5 6 1.4 8.7C116.9 193 116.5 190 116.4 187zM244.6 350.6c-4.4-.8-9.5-1.8-14.2-3.5C235.2 348.8 240.2 349.8 244.6 350.6z"/><path d="M195.9,162.9c-0.1-0.1-0.1-0.1-0.2-0.2c-8.5-8.1-20.1-10.7-31.9-10.1c5.9-0.3,11.8,0.2,17.3,1.9c-10,1.6-20.3,6.5-28.3,10.3c-14.1,6.6-27.1,17.4-35.1,31c0.8,2.5,1.9,4.8,3.5,6.5c1.4,1.6,1.7,3.5,1.2,5.1c0.2,0.3,0.4,0.6,0.6,0.9c-0.1-0.1-0.1-0.2-0.2-0.3c6-14.4,18.3-26.4,32.3-33.2c6.5-3.2,13.2-5.9,20.1-8.1c4.8-1.5,12-3.9,17-2c1.6,0.6,3,0.4,4.2-0.2c0,0,0,0,0,0C196.2,163.9,196,163.4,195.9,162.9z"/><path fill="none" d="M221.9 200.6c.8 1.4 1.6 2.7 2.4 4.1 1 1.6 2 3.3 2.9 4.9C225.5 206.6 223.7 203.6 221.9 200.6zM283.2 292.3C283.2 292.3 283.2 292.3 283.2 292.3c.1-.1.1-.3.2-.4C283.3 292 283.3 292.2 283.2 292.3zM231.5 300c-.2-2.9-1.6-5.1-3.7-7.1-4.5-4.3-9.2-7.8-12.7-13.1-4.4-6.8-7.8-14.2-11.2-21.5-7-14.7-16.6-26.3-27.6-38.1-2.2-2.4-4.3-5.5-6.9-7.5-1.9-1.5-4.3-2.5-6-4.1-.7-.6-1.2-1.3-1.5-2-9.4 5.7-19 12.6-24.4 21.8-.1.2-.3.4-.4.6 2.7 3.8 5.3 7.7 8 11.5 7.6 10.9 14.8 22.2 22.7 33 15.6 21.2 34.2 40.3 47.5 63.1.7.3 1.3.9 1.9 1.7.3.5.7.9 1 1.3.2.2.3.4.5.5.2.2.4.4.6.6.5.5 1 1 1.6 1.4 0 0 0 0 0 0 0-7.1 2.8-14.7 5.2-21.1 2-5.6 4.3-11.3 7.3-16.4C232.3 303.2 231.6 301.7 231.5 300zM212.8 189.2c.4-.5.7-1.1.9-1.8C213.6 188.1 213.3 188.7 212.8 189.2zM206.5 176.8c0-.1-.1-.1-.1-.2-.8-1.1-1.7-2.3-2.6-3.4-.1-.2-.3-.3-.4-.5-.8-1-1.6-2-2.5-3-.2-.2-.4-.5-.6-.7-1-1.2-2.1-2.4-3.2-3.6-.1-.2-.3-.3-.4-.5-.1-.2-.2-.3-.3-.5-.3-.5-.5-1-.6-1.5-.1-.1-.1-.1-.2-.2-8.5-8.1-20.1-10.7-31.9-10.1 0 0 0 0 0 0-2 .1-3.9.3-5.9.6 0 0-.1 0-.1 0-.9.1-1.9.3-2.8.4 0 0-.1 0-.1 0-.9.2-1.9.4-2.8.6-.1 0-.1 0-.2 0-.9.2-1.7.4-2.5.6-.1 0-.2.1-.4.1-.9.2-1.8.5-2.6.7-.1 0-.2 0-.2.1-.8.2-1.6.5-2.3.7-.2.1-.4.1-.5.2-.8.3-1.6.6-2.5.8-.1 0-.1 0-.2.1-.7.3-1.5.5-2.2.8-.2.1-.4.2-.6.2-.8.3-1.5.6-2.3.9-7.2 3.1-16.5 8.3-18.3 16.7-.1.4-.2.9-.2 1.3 0 .1 0 .3-.1.4-.1.3-.1.7-.2 1 0 .2 0 .3-.1.5-.1.4-.1.9-.2 1.3 0 .2 0 .4-.1.7 0 .3 0 .5-.1.8 0 .3 0 .5-.1.8 0 .2 0 .4 0 .6 0 .6 0 1.3 0 1.9v.2c0 .4 0 .8 0 1.2 0 .1 0 .1 0 .2.1 3 .5 6 1.4 8.7l0 0c.8 2.5 1.9 4.8 3.5 6.5 1.4 1.6 1.7 3.5 1.2 5.1.2.3.4.6.6.9 1.3 2 2.6 3.9 3.9 5.9 1.3 2 2.7 4 4 6 8.3-11.6 21.4-20.1 33.7-26.7 12-6.4 26.4-11.8 40.2-12.6.4-.1.8-.1 1.2-.1h2.6c.2 0 .4 0 .5 0C208.3 179.4 207.4 178.1 206.5 176.8z"/><path fill="#14B6B9" d="M263.7,258.6c-7.7-10.6-17.1-19.9-24.6-30.6c-1.1-1.5-2.1-3-3.1-4.5c-0.3-0.5-0.7-1-1-1.5c-0.7-1-1.4-2.1-2-3.1c-0.4-0.6-0.7-1.1-1.1-1.7c-0.6-1-1.3-2-1.9-3.1c-0.3-0.6-0.7-1.1-1-1.7c-0.6-0.9-1.1-1.9-1.7-2.8c-1.8-3-3.6-6-5.4-9c-0.4-0.6-0.8-1.3-1.1-1.9c-0.1-0.1-0.1-0.2-0.2-0.3c-2.1-3.5-4.2-7-6.4-10.4c-0.1-0.2-0.2-0.4-0.4-0.6c-0.2,0.7-0.5,1.3-0.9,1.8c0,0,0,0,0,0c-0.1,0.1-0.3,0.3-0.4,0.4c-0.1,0-0.1,0.1-0.2,0.1c-0.1,0.1-0.3,0.2-0.4,0.3c-0.1,0.1-0.2,0.1-0.3,0.1c-0.1,0.1-0.2,0.1-0.4,0.2c-0.1,0-0.3,0.1-0.5,0.1c-0.1,0-0.2,0.1-0.3,0.1c-0.3,0-0.6,0.1-0.9,0.1c-12.7,0-26.5,4.5-37.9,10.4c0.3,0.5,0.4,1,0.6,1.5c0.8,0.5,1.6,1.1,2,1.3c1.8,1.3,3.1,2.7,4.6,4.3c3.9,4.3,7.9,8.4,11.8,12.7c7.9,8.7,14.6,17.9,20,28.4c5.1,10,8.8,22.9,17.4,30.5c3.4,3,7.2,5.7,9.8,9.4c1.1,1.6,2.3,3.4,2.9,5.3c0.2,0.8,0.3,2.2,0.6,3.4c0,0,0,0,0,0c0.6,0,1.2,0,1.8,0.2c7,0.4,15.4-2,22.1-2.9c0.2,0,0.5-0.1,0.8-0.1c0,0,0.1,0,0.1,0c0.3,0,0.5-0.1,0.8-0.1c0.4-0.1,0.8-0.1,1.2-0.2c0,0,0,0,0,0c0.4-0.1,0.7-0.1,1.1-0.2c0,0,0.1,0,0.1,0c0.4-0.1,0.8-0.1,1.2-0.2c0,0,0.1,0,0.1,0c0.4-0.1,0.8-0.1,1.2-0.2c0,0,0.1,0,0.1,0c0.4,0,0.9-0.1,1.3-0.1c0,0,0,0,0,0c0.4,0,0.9-0.1,1.3-0.1c0.6-0.4,1.4-0.6,2.1-0.6h3c0.6,0,1.2-0.1,1.7-0.2c0.2-0.1,1.1-0.3,1.3-0.4c0.2-0.1,0.4-0.1,0.6-0.2c0.1-0.1,0.1-0.3,0.2-0.4C278.1,280.1,271.4,269,263.7,258.6z"/><path fill="#FCBF95" d="M290.6,336.1c-1.5-6.9-3.2-14-3.3-21.1c0-0.4,0-0.9,0-1.3c0-0.2,0-0.5,0-0.7c0-0.2,0-0.4,0-0.5c0-1.6,0-3.2-0.1-4.8l0-0.2c0-0.4-0.1-0.8-0.1-1.2c0-0.1,0-0.2,0-0.3c0-0.4-0.1-0.9-0.2-1.3c0,0,0-0.1,0-0.1c-0.1-0.5-0.1-1-0.2-1.4c-0.1,0-0.1,0-0.2,0h-4.8c-0.4,0.4-0.9,0.7-1.4,1c0,0-0.1,0-0.1,0c-0.2,0.1-0.4,0.2-0.6,0.2c-0.1,0-0.1,0-0.2,0.1c-0.2,0.1-0.4,0.1-0.6,0.1c-0.1,0-0.2,0-0.3,0c-0.2,0-0.3,0-0.5,0c-0.1,0-0.2,0-0.3,0c-0.2,0-0.3,0-0.5-0.1c-0.1,0-0.2,0-0.3,0c-0.2,0-0.3-0.1-0.5-0.1c-0.1,0-0.2,0-0.2-0.1c-0.2-0.1-0.5-0.2-0.7-0.4h0c-1.6,0.1-3.1,0.2-4.7,0.4c-3.8,0.5-7.5,1-11.3,1.6c-5.1,0.7-10.5,1.9-15.8,1.9c-0.4,0.4-0.9,0.8-1.4,1.1c-0.3,0.6-0.6,1.1-1,1.8c-1.9,3.6-3.5,7.4-5,11.2c-2.6,6.6-6.3,15-5.3,22.3c0.2,1.2-0.1,2.2-0.5,2.9c0,0,0,0,0,0c4.7,1.6,9.8,2.6,14.2,3.5c0.7,0.1,1.4,0.3,2.1,0.4c10.7,2,21.4,3.1,31.7,6.5c2.2,0.7,10.7,4.3,12.3,1.2C294.2,351.9,292.1,343,290.6,336.1z"/><path d="M301.6,340.6c-1.4-8.8-4-17.4-4.4-26.4c-0.3-6.9,0-14.2-3.3-20.3c0.4-1,0.4-2.1-0.2-3.4c-5.3-12.2-12-23.6-19.5-34.5c-7.9-11.3-17.6-21.1-25.7-32.1c-15.8-21.4-26.5-46.1-44.6-65.9c-0.2-0.9-0.7-1.8-1.5-2.6c-19.5-18.6-52.4-14.2-74.6-3c-10.1,5.1-18.7,12.7-20.7,24.3c-1.8,10.2-0.2,23.1,6.3,31.6c-0.5,1.3-0.4,2.8,0.5,4.3c14.2,22.1,29.4,43.9,44.6,65.2c16.2,22.6,36.1,42.4,49.9,66.7c0.7,1.3,1.7,2,2.8,2.2c8,8.7,21.4,11.7,32.4,14c6.7,1.4,13.6,2.3,20.3,3.4c6.2,1,11.9,3.4,18,4.9c5.9,1.5,12.4,1.1,16.6-3.9C303.8,358.7,302.8,348,301.6,340.6z M126.9,214.1c-1.3-2-2.6-3.9-3.9-5.9c-0.2-0.3-0.4-0.6-0.6-0.9c0.5-1.6,0.3-3.5-1.2-5.1c-1.6-1.8-2.8-4-3.5-6.5l0,0c-0.9-2.7-1.3-5.7-1.4-8.7c0-0.1,0-0.1,0-0.2c0-0.4,0-0.8,0-1.2v-0.2c0-0.7,0-1.3,0-1.9c0-0.2,0-0.4,0-0.6c0-0.3,0-0.5,0.1-0.8c0-0.3,0-0.5,0.1-0.8c0-0.2,0-0.4,0.1-0.7c0-0.5,0.1-0.9,0.2-1.3c0-0.2,0-0.3,0.1-0.5c0-0.3,0.1-0.7,0.2-1c0-0.1,0-0.3,0.1-0.4c0.1-0.4,0.2-0.9,0.2-1.3c1.8-8.4,11.1-13.6,18.3-16.7c0.7-0.3,1.5-0.6,2.3-0.9c0.2-0.1,0.4-0.2,0.6-0.2c0.7-0.3,1.4-0.6,2.2-0.8c0.1,0,0.1-0.1,0.2-0.1c0.8-0.3,1.6-0.6,2.5-0.8c0.2-0.1,0.4-0.1,0.5-0.2c0.8-0.2,1.5-0.5,2.3-0.7c0.1,0,0.2,0,0.2-0.1c0.9-0.3,1.8-0.5,2.6-0.7c0.1,0,0.2-0.1,0.4-0.1c0.8-0.2,1.7-0.4,2.5-0.6c0.1,0,0.1,0,0.2,0c0.9-0.2,1.9-0.4,2.8-0.6c0,0,0.1,0,0.1,0c0.9-0.2,1.9-0.3,2.8-0.4c0,0,0.1,0,0.1,0c2-0.3,3.9-0.5,5.9-0.6c0,0,0,0,0,0c11.7-0.6,23.3,2,31.9,10.1c0.1,0.1,0.1,0.1,0.2,0.2c0.1,0.5,0.3,1,0.6,1.5c0.1,0.2,0.2,0.3,0.3,0.5c0.1,0.2,0.2,0.3,0.4,0.5c1.1,1.2,2.2,2.4,3.2,3.6c0.2,0.2,0.4,0.5,0.6,0.7c0.8,1,1.7,2,2.5,3c0.1,0.2,0.3,0.3,0.4,0.5c0.9,1.1,1.7,2.2,2.6,3.4c0,0.1,0.1,0.1,0.1,0.2c0.9,1.3,1.8,2.5,2.7,3.8c-0.2,0-0.3,0-0.5,0h-2.6c-0.4,0-0.8,0.1-1.2,0.1c-13.8,0.9-28.2,6.3-40.2,12.6c-12.3,6.6-25.5,15.1-33.7,26.7C129.6,218.1,128.3,216.1,126.9,214.1z M220.8,342.1C220.8,342.1,220.8,342.1,220.8,342.1c-0.6-0.5-1.1-0.9-1.6-1.4c-0.2-0.2-0.4-0.4-0.6-0.6c-0.2-0.2-0.3-0.3-0.5-0.5c-0.4-0.4-0.7-0.9-1-1.3c-0.5-0.8-1.2-1.3-1.9-1.7c-13.4-22.8-31.9-41.9-47.5-63.1c-7.9-10.7-15.1-22-22.7-33c-2.7-3.8-5.3-7.6-8-11.5c0.2-0.2,0.3-0.4,0.4-0.6c5.4-9.3,14.9-16.2,24.4-21.8c0.3,0.7,0.8,1.4,1.5,2c1.7,1.6,4.1,2.7,6,4.1c2.6,2,4.7,5.1,6.9,7.5c11,11.8,20.6,23.4,27.6,38.1c3.5,7.3,6.8,14.7,11.2,21.5c3.5,5.3,8.2,8.9,12.7,13.1c2.1,2,3.5,4.1,3.7,7.1c0.1,1.7,0.8,3.2,1.8,4.6c-3,5.2-5.2,10.9-7.3,16.4C223.6,327.4,220.7,334.9,220.8,342.1z M290.8,358.6c-1.6,3.2-10.2-0.5-12.3-1.2c-10.4-3.4-21-4.5-31.7-6.5c-0.7-0.1-1.4-0.3-2.1-0.4c-4.4-0.8-9.5-1.8-14.2-3.5c0,0,0,0,0,0c0.5-0.8,0.7-1.8,0.5-2.9c-0.9-7.3,2.7-15.6,5.3-22.3c1.5-3.8,3.1-7.5,5-11.2c0.3-0.7,0.7-1.2,1-1.8c0.5-0.3,0.9-0.7,1.4-1.1c5.3,0,10.8-1.2,15.8-1.9c3.8-0.6,7.5-1.1,11.3-1.6c1.6-0.2,3.1-0.3,4.7-0.4h0c0.2,0.1,0.4,0.3,0.7,0.4c0.1,0,0.2,0.1,0.2,0.1c0.2,0.1,0.3,0.1,0.5,0.1c0.1,0,0.2,0,0.3,0c0.2,0,0.3,0,0.5,0.1c0.1,0,0.2,0,0.3,0c0.2,0,0.3,0,0.5,0c0.1,0,0.2,0,0.3,0c0.2,0,0.4-0.1,0.6-0.1c0.1,0,0.1,0,0.2-0.1c0.2-0.1,0.4-0.2,0.6-0.2c0,0,0.1,0,0.1,0c0.5-0.2,1-0.6,1.4-1c1.3-1.2,2.1-3,1.6-5.1c-0.8-3.6-4.7-4.4-8.7-4.2c-0.4,0-0.9,0-1.3,0.1c0,0,0,0,0,0c-0.4,0-0.9,0.1-1.3,0.1c0,0-0.1,0-0.1,0c-0.4,0-0.8,0.1-1.2,0.2c0,0-0.1,0-0.1,0c-0.4,0.1-0.8,0.1-1.2,0.2c0,0-0.1,0-0.1,0c-0.4,0.1-0.8,0.1-1.1,0.2c0,0,0,0,0,0c-0.4,0.1-0.8,0.1-1.2,0.2c-0.3,0.1-0.6,0.1-0.8,0.1c0,0-0.1,0-0.1,0c-0.3,0-0.6,0.1-0.8,0.1c-6.8,1-15.2,3.3-22.1,2.9c-0.6-0.1-1.2-0.2-1.8-0.2c0,0,0,0,0,0c-0.3-1.2-0.4-2.6-0.6-3.4c-0.5-1.9-1.7-3.7-2.9-5.3c-2.7-3.7-6.5-6.4-9.8-9.4c-8.6-7.7-12.3-20.5-17.4-30.5c-5.4-10.5-12.1-19.6-20-28.4c-3.9-4.3-7.9-8.4-11.8-12.7c-1.5-1.6-2.8-3-4.6-4.3c-0.4-0.3-1.2-0.8-2-1.3c-0.1-0.5-0.3-1-0.6-1.5c11.4-5.9,25.2-10.4,37.9-10.4c0.3,0,0.6,0,0.9-0.1c0.1,0,0.2-0.1,0.3-0.1c0.2,0,0.3-0.1,0.5-0.1c0.1,0,0.2-0.1,0.4-0.2c0.1,0,0.2-0.1,0.3-0.1c0.1-0.1,0.3-0.2,0.4-0.3c0.1,0,0.1-0.1,0.2-0.1c0.2-0.1,0.3-0.3,0.4-0.4c0,0,0,0,0,0c0.4-0.5,0.7-1.1,0.9-1.8c0,0,0,0,0,0c2.8,4.3,5.5,8.8,8.1,13.2c0.8,1.4,1.6,2.7,2.4,4.1c1,1.6,2,3.3,2.9,4.9c0.6,0.9,1.1,1.9,1.7,2.8c0.3,0.6,0.7,1.1,1,1.7c0.6,1,1.3,2,1.9,3.1c0.4,0.6,0.7,1.1,1.1,1.7c0.7,1.1,1.4,2.1,2,3.1c0.3,0.5,0.7,1,1,1.5c1,1.5,2,3,3.1,4.5c7.6,10.7,16.9,20,24.6,30.6c7.6,10.4,14.4,21.5,19.7,33.3c-0.1,0.1-0.1,0.3-0.2,0.4c0,0,0,0,0,0c-0.6,1.3-0.5,2.9,0.7,4.5c1.7,2.3,2.6,4.9,2.9,7.7c0,0,0,0.1,0,0.1c0.1,0.4,0.1,0.9,0.2,1.3c0,0.1,0,0.2,0,0.3c0,0.4,0.1,0.8,0.1,1.2l0,0.2c0.1,1.6,0.1,3.2,0.1,4.8c0,0.2,0,0.4,0,0.5c0,0.2,0,0.5,0,0.7c0,0.4,0,0.9,0,1.3c0.2,7.1,1.9,14.2,3.3,21.1C292.1,343,294.2,351.9,290.8,358.6z"/><path d="M230.4 347.2c4.7 1.6 9.8 2.6 14.2 3.5C240.2 349.8 235.2 348.8 230.4 347.2zM213.7 187.4c.1.2.2.3.3.5C214 187.8 213.9 187.6 213.7 187.4 213.7 187.4 213.7 187.4 213.7 187.4zM214.1 187.9c1.2 1.9 2.4 3.7 3.5 5.6C216.5 191.7 215.3 189.8 214.1 187.9 214.1 188 214.1 187.9 214.1 187.9zM220.7 198.7c-.1-.1-.1-.2-.2-.3-.6-.9-1.1-1.8-1.7-2.8 1 1.7 2 3.3 3 5C221.5 200 221.1 199.3 220.7 198.7zM287.1 307.6c.1 1.6.1 3.2.1 4.8C287.2 310.8 287.2 309.2 287.1 307.6zM283.2 292.3c-.2.1-.4.2-.6.2-.2.1-1.1.3-1.3.4-.6.1-1.1.1-1.7.2h-3c-.8 0-1.5.2-2.1.6 4.1-.2 7.9.6 8.7 4.2.5 2.2-.3 4-1.6 5.1h4.8c.1 0 .1 0 .2 0-.5-2.3-1.3-4.4-2.7-6.3C282.7 295.2 282.6 293.7 283.2 292.3zM286.6 303.1c0 .1 0 .1 0 .2C286.6 303.2 286.6 303.1 286.6 303.1L286.6 303.1zM157.9 153.2c2-.3 3.9-.5 5.9-.6C161.9 152.7 159.9 152.9 157.9 153.2z"/><path fill="#D6E5E5" d="M376.4,200.7c-17.3-12-39.5-14.9-59.9-12c-11.3,1.6-22.6,5.2-33.5,8.5c-11.4,3.5-23.6,7.8-32.7,15.7c-4.8,4.2,0.7,12.5,5.6,8.3c8.6-7.4,19.7-11.2,30.5-14.6c10.5-3.3,21.4-6.7,32.3-8.2c20-2.8,42.1,0.9,57.5,14.7c17.3,15.5,17.7,40.7,10.4,61.3c-8.4,23.5-26.4,44-48.5,55.4c-12.5,6.5-26.2,12.2-34,24.5c-3.5,5.5,5.6,9.8,9,4.4c5.6-8.9,16.8-13.7,25.9-18.3c9.9-5,18.6-10.5,26.9-18c19.5-17.6,33.8-43.2,35.2-69.7C401.9,232.2,393.6,212.6,376.4,200.7z"/><path fill="#D6E5E5" d="M413.1 172.1c-19.3-16.4-42.9-23.6-68.1-23.1-25.7.5-51 8.6-74.9 17.4-13.9 5.1-27.5 10.8-41.3 16.1-6 2.3-2.7 11.8 3.3 9.4 23.6-9 46.8-19 71.1-25.9 24.2-6.8 50.2-10.3 74.7-2.7 22.1 6.8 41.6 24.7 51 45.7 8.8 19.7 8.8 41.9 2.9 62.4-6.8 23.6-22.5 41.8-40.1 58.3-20.7 19.4-44.1 35.9-68.5 50.4-39 23.1-82.4 42.8-128.6 41.7-16.7-.4-34.2-4.4-47.9-14.4-13.4-9.8-21.1-24.9-23.7-41-2.7-16.8-1.7-34.3 2.6-50.7 3.9-14.8 12-30.9 27.1-36.8 6-2.3 2.7-11.8-3.3-9.4-17.3 6.8-26.8 23-32.3 39.9-5.8 18-6.9 38.1-4.2 56.7 2.6 18 10.6 34.8 24.7 46.7 14.6 12.4 34.1 17.6 53 18.7 45.2 2.7 87.7-15.2 126.5-36.4 24.9-13.6 48.5-29.6 70.2-48 18.9-16.1 37-33.8 47.9-56.4C454.2 250.5 447.7 201.5 413.1 172.1zM121.2 239.9c-15.8 12.8-25.9 29.6-33.2 48.4-2.3 6 6.6 10.5 9 4.4 6.6-17 15.4-32.9 29.8-44.6C131.7 244.2 126.2 235.9 121.2 239.9z"/><path d="M290.3,342.3c-0.7,0.3-1.4,0.6-2,0.9c-5.8,2.5-11.8,4.2-17.1,7.7c-4.4,2.8-1.6,9,2.8,9.1c2,2.3,5,2.2,7,0.8c2.3,1.7,5.9,1.8,7.5-1.6c1.3-2.8,1.7-5.8,4.5-7.2c0.2-0.1,0.4-0.2,0.7-0.3C299.3,349,296.5,340,290.3,342.3z"/></svg>